<?xml version="1.0" standalone="no"?>
<!DOCTYPE svg PUBLIC "-//W3C//DTD SVG 20010904//EN"
 "http://www.w3.org/TR/2001/REC-SVG-20010904/DTD/svg10.dtd">
<svg version="1.0" xmlns="http://www.w3.org/2000/svg"
 width="336.000000pt" height="445.000000pt" viewBox="0 0 336.000000 445.000000"
 preserveAspectRatio="xMidYMid meet">
<g transform="translate(0.000000,445.000000) scale(0.100000,-0.100000)"
fill="#c65858" stroke="none">
<path d="M1576 3828 c-88 -85 -96 -96 -96 -131 0 -48 20 -95 55 -127 25 -24
33 -25 140 -25 107 0 115 1 140 25 34 31 55 79 55 125 0 30 -9 46 -52 92 -29
30 -74 73 -100 94 l-46 40 -96 -93z m129 20 c51 -43 117 -113 125 -133 13 -34
-1 -82 -32 -112 -28 -27 -34 -28 -123 -28 -90 0 -95 1 -124 29 -17 16 -29 32
-26 34 3 3 0 11 -6 18 -12 15 -3 74 12 74 6 0 7 5 4 10 -3 6 1 10 9 10 10 0
13 6 10 15 -4 8 -1 15 6 15 7 0 28 15 47 34 20 18 41 38 47 44 16 16 21 15 51
-10z"/>
<path d="M1310 3504 c0 -17 148 -82 214 -93 73 -13 222 -14 297 -2 58 10 219
77 219 92 0 5 -164 10 -365 11 -259 2 -365 0 -365 -8z m501 -30 l59 -7 -27
-15 c-36 -20 -315 -24 -335 -4 -7 7 -21 12 -32 13 -21 0 -21 0 -1 8 25 11 258
14 336 5z"/>
<path d="M1153 3285 c5 -14 186 -80 277 -101 107 -25 386 -25 490 -1 94 23
272 88 277 103 3 7 -150 10 -522 10 -345 -1 -524 -4 -522 -11z m857 -34 c0
-10 -124 -50 -155 -50 -11 0 -61 -3 -112 -7 -92 -7 -308 10 -328 26 -5 4 -25
11 -42 15 -88 18 -10 25 302 25 193 0 335 -4 335 -9z"/>
<path d="M960 3053 c0 -10 254 -117 338 -143 94 -29 273 -44 457 -37 200 8
266 20 385 69 52 22 130 54 173 71 42 18 77 35 77 39 0 5 -322 8 -715 8 -393
0 -715 -3 -715 -7z m1242 -43 c-17 -11 -34 -20 -37 -20 -3 0 -19 -7 -35 -15
-17 -9 -36 -13 -42 -9 -6 4 -8 3 -5 -3 14 -22 -153 -49 -343 -57 -134 -5 -354
7 -390 22 -14 6 -42 13 -63 17 -24 4 -35 10 -31 17 4 6 3 8 -3 5 -5 -3 -21 0
-36 8 -14 7 -28 11 -31 7 -3 -3 -6 0 -6 7 0 7 -5 9 -10 6 -6 -3 -17 0 -25 9
-13 13 -13 15 3 19 9 3 258 5 552 6 l535 1 -33 -20z"/>
<path d="M855 2780 c-83 -24 -120 -44 -170 -95 -66 -66 -88 -116 -83 -190 5
-86 30 -114 179 -207 241 -149 368 -205 435 -192 50 9 41 36 -16 50 -106 27
-393 184 -497 273 -29 24 -48 96 -39 143 13 69 147 157 274 179 103 18 179
-18 306 -145 80 -79 126 -144 164 -231 48 -113 56 -163 53 -340 -6 -339 -6
-337 17 -381 43 -83 124 -132 308 -185 198 -57 283 -121 284 -216 0 -37 -5
-46 -44 -80 -24 -21 -79 -53 -122 -72 -124 -53 -156 -70 -207 -113 -64 -54
-87 -101 -87 -177 0 -93 52 -213 80 -185 6 6 0 28 -15 58 -33 64 -35 172 -6
220 24 37 101 98 156 121 147 63 200 93 241 137 36 39 44 54 44 85 -1 56 -31
115 -81 155 -60 48 -90 63 -200 93 -184 50 -270 98 -317 176 -21 35 -23 49
-19 117 2 42 10 115 17 160 22 138 -15 406 -67 489 -148 235 -273 341 -426
364 -79 11 -89 10 -162 -11z"/>
<path d="M2329 2790 c-123 -16 -224 -89 -338 -245 -37 -49 -74 -102 -84 -117
-43 -69 -86 -332 -73 -457 23 -222 99 -348 291 -483 44 -31 88 -64 97 -75 29
-32 60 -113 65 -173 5 -50 2 -64 -23 -109 -53 -98 -131 -145 -290 -176 -169
-32 -256 -118 -258 -255 -1 -51 2 -65 14 -65 11 0 17 16 21 60 12 130 94 203
257 231 20 3 66 15 102 26 53 18 76 32 127 83 78 78 101 142 85 235 -21 117
-53 158 -208 274 -88 66 -164 152 -194 219 -40 91 -48 361 -14 498 32 128 89
223 205 340 120 121 203 159 306 140 128 -24 259 -113 270 -183 10 -64 -13
-118 -65 -158 -132 -100 -372 -229 -472 -254 -59 -15 -66 -42 -13 -50 69 -12
191 42 413 181 160 101 174 112 189 162 42 142 -51 279 -230 336 -84 26 -90
27 -180 15z"/>
<path d="M1673 2661 c-79 -57 -70 -137 13 -117 27 7 32 37 9 56 -20 17 -19 26
6 51 35 35 16 42 -28 10z"/>
<path d="M1605 2500 c-13 -20 6 -27 72 -26 56 1 68 4 71 19 3 15 -5 17 -67 17
-38 0 -73 -4 -76 -10z"/>
<path d="M1653 2453 c-7 -2 -13 -11 -13 -19 0 -17 55 -19 66 -3 12 19 -24 34
-53 22z"/>
<path d="M1656 2401 c-7 -11 18 -33 27 -24 4 3 7 12 7 20 0 15 -26 18 -34 4z"/>
<path d="M1544 596 c-9 -23 -7 -23 66 -35 45 -7 85 -7 130 0 73 12 75 12 66
34 -4 12 -12 14 -33 8 -37 -11 -161 -10 -195 1 -22 6 -29 5 -34 -8z"/>
<path d="M1550 536 c0 -24 42 -36 119 -36 97 0 131 8 131 32 0 17 -4 19 -32
11 -18 -4 -60 -8 -93 -8 -33 0 -75 4 -92 8 -27 7 -33 6 -33 -7z"/>
<path d="M1657 473 c-13 -12 -7 -44 9 -50 23 -9 48 25 33 44 -12 14 -32 17
-42 6z"/>
</g>
</svg>
